{
	"patcher" : 	{
		"fileversion" : 1,
		"appversion" : 		{
			"major" : 8,
			"minor" : 1,
			"revision" : 2,
			"architecture" : "x64",
			"modernui" : 1
		}
,
		"classnamespace" : "box",
		"rect" : [ 104.0, 79.0, 822.0, 456.0 ],
		"bglocked" : 0,
		"openinpresentation" : 1,
		"default_fontsize" : 12.0,
		"default_fontface" : 0,
		"default_fontname" : "Arial",
		"gridonopen" : 1,
		"gridsize" : [ 8.0, 8.0 ],
		"gridsnaponopen" : 1,
		"objectsnaponopen" : 1,
		"statusbarvisible" : 2,
		"toolbarvisible" : 1,
		"lefttoolbarpinned" : 0,
		"toptoolbarpinned" : 0,
		"righttoolbarpinned" : 0,
		"bottomtoolbarpinned" : 0,
		"toolbars_unpinned_last_save" : 0,
		"tallnewobj" : 0,
		"boxanimatetime" : 200,
		"enablehscroll" : 1,
		"enablevscroll" : 1,
		"devicewidth" : 0.0,
		"description" : "",
		"digest" : "",
		"tags" : "",
		"style" : "",
		"subpatcher_template" : "",
		"boxes" : [ 			{
				"box" : 				{
					"id" : "obj-101",
					"linecount" : 5,
					"maxclass" : "comment",
					"numinlets" : 1,
					"numoutlets" : 0,
					"patching_rect" : [ 365.0, 38.0, 150.0, 74.0 ],
					"text" : "It's possible you will need to change the route values depending on your gametrak eg.\nroute 15 16 17 18 19 20 3"
				}

			}
, 			{
				"box" : 				{
					"bgcolor" : [ 0.43921568627451, 0.419607843137255, 0.419607843137255, 0.0 ],
					"id" : "obj-228",
					"maxclass" : "number",
					"maximum" : 127,
					"minimum" : 0,
					"numinlets" : 1,
					"numoutlets" : 2,
					"outlettype" : [ "", "bang" ],
					"parameter_enable" : 0,
					"patching_rect" : [ 1305.0, 455.0, 50.0, 22.0 ],
					"presentation" : 1,
					"presentation_rect" : [ 537.866666597128187, 287.666667699813843, 36.0, 22.0 ],
					"textcolor" : [ 0.996078431372549, 0.996078431372549, 0.996078431372549, 1.0 ],
					"tricolor" : [ 0.807843137254902, 0.898039215686275, 0.909803921568627, 1.0 ],
					"varname" : "midi-FSw-ch"
				}

			}
, 			{
				"box" : 				{
					"bgcolor" : [ 0.2, 0.2, 0.2, 0.0 ],
					"checkedcolor" : [ 0.807843137254902, 0.898039215686275, 0.909803921568627, 1.0 ],
					"id" : "obj-229",
					"maxclass" : "toggle",
					"numinlets" : 1,
					"numoutlets" : 1,
					"outlettype" : [ "int" ],
					"parameter_enable" : 0,
					"patching_rect" : [ 1151.0, 483.0, 24.0, 24.0 ],
					"presentation" : 1,
					"presentation_rect" : [ 485.333334296941757, 261.666667699813843, 24.0, 24.0 ],
					"uncheckedcolor" : [ 0.137254901960784, 0.137254901960784, 0.137254901960784, 1.0 ],
					"varname" : "midi-FSw-on"
				}

			}
, 			{
				"box" : 				{
					"id" : "obj-98",
					"maxclass" : "comment",
					"numinlets" : 1,
					"numoutlets" : 0,
					"patching_rect" : [ 111.5, 96.25, 150.0, 20.0 ],
					"presentation" : 1,
					"presentation_rect" : [ 506.0, 289.166667699813843, 28.366666597128187, 20.0 ],
					"text" : "Ch"
				}

			}
, 			{
				"box" : 				{
					"angle" : 0.0,
					"bgcolor" : [ 0.23921568627451, 0.325490196078431, 0.329411764705882, 1.0 ],
					"id" : "obj-99",
					"maxclass" : "panel",
					"mode" : 0,
					"numinlets" : 1,
					"numoutlets" : 0,
					"patching_rect" : [ 2061.75, 29.0, 294.0, 150.0 ],
					"presentation" : 1,
					"presentation_rect" : [ 506.0, 287.666667699813843, 67.866666597128187, 23.0 ],
					"proportion" : 0.5,
					"rounded" : 0
				}

			}
, 			{
				"box" : 				{
					"bgcolor" : [ 0.301961, 0.301961, 0.301961, 0.0 ],
					"bgcolor2" : [ 0.301961, 0.301961, 0.301961, 0.0 ],
					"bgfillcolor_angle" : 270.0,
					"bgfillcolor_autogradient" : 0.0,
					"bgfillcolor_color" : [ 0.2, 0.2, 0.2, 0.0 ],
					"bgfillcolor_color1" : [ 0.301961, 0.301961, 0.301961, 0.0 ],
					"bgfillcolor_color2" : [ 0.2, 0.2, 0.2, 1.0 ],
					"bgfillcolor_proportion" : 0.5,
					"bgfillcolor_type" : "color",
					"gradient" : 1,
					"id" : "obj-234",
					"maxclass" : "message",
					"numinlets" : 2,
					"numoutlets" : 1,
					"outlettype" : [ "" ],
					"patching_rect" : [ 1206.0, 520.0, 50.0, 22.0 ],
					"presentation" : 1,
					"presentation_rect" : [ 506.0, 317.0, 39.0, 22.0 ],
					"text" : "0 127"
				}

			}
, 			{
				"box" : 				{
					"id" : "obj-41",
					"maxclass" : "comment",
					"numinlets" : 1,
					"numoutlets" : 0,
					"patching_rect" : [ 2008.5, 761.0, 150.0, 20.0 ],
					"presentation" : 1,
					"presentation_rect" : [ 544.0, 318.5, 29.0, 20.0 ],
					"text" : "out"
				}

			}
, 			{
				"box" : 				{
					"angle" : 0.0,
					"bgcolor" : [ 0.2, 0.274509803921569, 0.27843137254902, 1.0 ],
					"id" : "obj-96",
					"maxclass" : "panel",
					"mode" : 0,
					"numinlets" : 1,
					"numoutlets" : 0,
					"patching_rect" : [ 2076.75, 44.0, 294.0, 150.0 ],
					"presentation" : 1,
					"presentation_rect" : [ 506.0, 317.0, 67.866666597128187, 23.0 ],
					"proportion" : 0.5,
					"rounded" : 0
				}

			}
, 			{
				"box" : 				{
					"id" : "obj-39",
					"maxclass" : "comment",
					"numinlets" : 1,
					"numoutlets" : 0,
					"patching_rect" : [ 2008.5, 735.0, 150.0, 20.0 ],
					"presentation" : 1,
					"presentation_rect" : [ 586.0, 238.5, 129.0, 20.0 ],
					"text" : "preset name"
				}

			}
, 			{
				"box" : 				{
					"id" : "obj-34",
					"maxclass" : "textedit",
					"numinlets" : 1,
					"numoutlets" : 4,
					"outlettype" : [ "", "int", "", "" ],
					"parameter_enable" : 0,
					"patching_rect" : [ 1362.0, 269.0, 100.0, 50.0 ],
					"presentation" : 1,
					"presentation_rect" : [ 586.0, 219.0, 129.0, 22.0 ],
					"text" : "all off",
					"varname" : "preset-name"
				}

			}
, 			{
				"box" : 				{
					"id" : "obj-32",
					"maxclass" : "button",
					"numinlets" : 1,
					"numoutlets" : 1,
					"outlettype" : [ "bang" ],
					"parameter_enable" : 0,
					"patching_rect" : [ 111.5, 363.0, 24.0, 24.0 ],
					"presentation" : 1,
					"presentation_rect" : [ 551.0, 40.0, 24.0, 24.0 ]
				}

			}
, 			{
				"box" : 				{
					"fontface" : 1,
					"id" : "obj-219",
					"maxclass" : "comment",
					"numinlets" : 1,
					"numoutlets" : 0,
					"patching_rect" : [ 1605.0, 758.0, 151.0, 20.0 ],
					"presentation" : 1,
					"presentation_rect" : [ 452.999999999999943, 291.0, 25.0, 20.0 ],
					"text" : "RZ"
				}

			}
, 			{
				"box" : 				{
					"fontface" : 1,
					"id" : "obj-220",
					"maxclass" : "comment",
					"numinlets" : 1,
					"numoutlets" : 0,
					"patching_rect" : [ 1590.0, 743.0, 151.0, 20.0 ],
					"presentation" : 1,
					"presentation_rect" : [ 372.399999999999977, 291.0, 25.0, 20.0 ],
					"text" : "RY"
				}

			}
, 			{
				"box" : 				{
					"fontface" : 1,
					"id" : "obj-221",
					"maxclass" : "comment",
					"numinlets" : 1,
					"numoutlets" : 0,
					"patching_rect" : [ 1575.0, 728.0, 151.0, 20.0 ],
					"presentation" : 1,
					"presentation_rect" : [ 294.999999999999943, 291.0, 25.0, 20.0 ],
					"text" : "RX"
				}

			}
, 			{
				"box" : 				{
					"fontface" : 1,
					"id" : "obj-197",
					"maxclass" : "comment",
					"numinlets" : 1,
					"numoutlets" : 0,
					"patching_rect" : [ 1590.0, 743.0, 151.0, 20.0 ],
					"presentation" : 1,
					"presentation_rect" : [ 209.5, 291.0, 23.0, 20.0 ],
					"text" : "LZ"
				}

			}
, 			{
				"box" : 				{
					"fontface" : 1,
					"id" : "obj-196",
					"maxclass" : "comment",
					"numinlets" : 1,
					"numoutlets" : 0,
					"patching_rect" : [ 1575.0, 728.0, 157.0, 20.0 ],
					"presentation" : 1,
					"presentation_rect" : [ 130.199999999999989, 291.0, 25.0, 20.0 ],
					"text" : "LY"
				}

			}
, 			{
				"box" : 				{
					"fontface" : 1,
					"id" : "obj-181",
					"maxclass" : "comment",
					"numinlets" : 1,
					"numoutlets" : 0,
					"patching_rect" : [ 1560.0, 713.0, 157.0, 20.0 ],
					"presentation" : 1,
					"presentation_rect" : [ 52.0, 291.0, 24.0, 20.0 ],
					"text" : "LX"
				}

			}
, 			{
				"box" : 				{
					"bgmode" : 0,
					"border" : 0,
					"clickthrough" : 0,
					"enablehscroll" : 0,
					"enablevscroll" : 0,
					"id" : "obj-93",
					"lockeddragscroll" : 0,
					"maxclass" : "bpatcher",
					"name" : "mapping-midi.maxpat",
					"numinlets" : 1,
					"numoutlets" : 0,
					"offset" : [ 0.0, 0.0 ],
					"patching_rect" : [ 1036.0, 480.0, 74.0, 137.0 ],
					"presentation" : 1,
					"presentation_rect" : [ 401.0, 291.0, 77.0, 163.0 ],
					"varname" : "mapping-midi-RZ",
					"viewvisibility" : 1
				}

			}
, 			{
				"box" : 				{
					"bgmode" : 0,
					"border" : 0,
					"clickthrough" : 0,
					"enablehscroll" : 0,
					"enablevscroll" : 0,
					"id" : "obj-91",
					"lockeddragscroll" : 0,
					"maxclass" : "bpatcher",
					"name" : "mapping-midi.maxpat",
					"numinlets" : 1,
					"numoutlets" : 0,
					"offset" : [ 0.0, 0.0 ],
					"patching_rect" : [ 930.0, 480.0, 74.0, 137.0 ],
					"presentation" : 1,
					"presentation_rect" : [ 322.0, 291.0, 77.0, 163.0 ],
					"varname" : "mapping-midi-RY",
					"viewvisibility" : 1
				}

			}
, 			{
				"box" : 				{
					"bgmode" : 0,
					"border" : 0,
					"clickthrough" : 0,
					"enablehscroll" : 0,
					"enablevscroll" : 0,
					"id" : "obj-89",
					"lockeddragscroll" : 0,
					"maxclass" : "bpatcher",
					"name" : "mapping-midi.maxpat",
					"numinlets" : 1,
					"numoutlets" : 0,
					"offset" : [ 0.0, 0.0 ],
					"patching_rect" : [ 824.0, 480.0, 74.0, 137.0 ],
					"presentation" : 1,
					"presentation_rect" : [ 243.0, 291.0, 77.0, 163.0 ],
					"varname" : "mapping-midi-RX",
					"viewvisibility" : 1
				}

			}
, 			{
				"box" : 				{
					"bgmode" : 0,
					"border" : 0,
					"clickthrough" : 0,
					"enablehscroll" : 0,
					"enablevscroll" : 0,
					"id" : "obj-86",
					"lockeddragscroll" : 0,
					"maxclass" : "bpatcher",
					"name" : "mapping-midi.maxpat",
					"numinlets" : 1,
					"numoutlets" : 0,
					"offset" : [ 0.0, 0.0 ],
					"patching_rect" : [ 720.0, 480.0, 74.0, 137.0 ],
					"presentation" : 1,
					"presentation_rect" : [ 155.5, 291.0, 77.0, 163.0 ],
					"varname" : "mapping-midi-LZ",
					"viewvisibility" : 1
				}

			}
, 			{
				"box" : 				{
					"bgmode" : 0,
					"border" : 0,
					"clickthrough" : 0,
					"enablehscroll" : 0,
					"enablevscroll" : 0,
					"id" : "obj-75",
					"lockeddragscroll" : 0,
					"maxclass" : "bpatcher",
					"name" : "mapping-midi.maxpat",
					"numinlets" : 1,
					"numoutlets" : 0,
					"offset" : [ 0.0, 0.0 ],
					"patching_rect" : [ 616.0, 480.0, 74.0, 137.0 ],
					"presentation" : 1,
					"presentation_rect" : [ 76.5, 291.0, 77.0, 163.0 ],
					"varname" : "mapping-midi-LY",
					"viewvisibility" : 1
				}

			}
, 			{
				"box" : 				{
					"bgcolor" : [ 1.0, 1.0, 1.0, 0.0 ],
					"bgmode" : 0,
					"border" : 0,
					"clickthrough" : 0,
					"enablehscroll" : 0,
					"enablevscroll" : 0,
					"id" : "obj-74",
					"lockeddragscroll" : 0,
					"maxclass" : "bpatcher",
					"name" : "mapping-midi.maxpat",
					"numinlets" : 1,
					"numoutlets" : 0,
					"offset" : [ 0.0, 0.0 ],
					"patching_rect" : [ 511.0, 480.0, 74.0, 137.0 ],
					"presentation" : 1,
					"presentation_rect" : [ -1.0, 291.0, 77.0, 163.0 ],
					"varname" : "mapping-midi-LX",
					"viewvisibility" : 1
				}

			}
, 			{
				"box" : 				{
					"id" : "obj-9",
					"maxclass" : "newobj",
					"numinlets" : 1,
					"numoutlets" : 4,
					"outlettype" : [ "", "", "", "" ],
					"patching_rect" : [ 1662.0, 61.0, 56.0, 22.0 ],
					"restore" : 					{
						"midi-FSw-ch" : [ 26 ],
						"midi-FSw-on" : [ 0 ],
						"preset-name" : [ "all", "off" ]
					}
,
					"text" : "autopattr",
					"varname" : "u046001057"
				}

			}
, 			{
				"box" : 				{
					"fontface" : 1,
					"id" : "obj-97",
					"maxclass" : "comment",
					"numinlets" : 1,
					"numoutlets" : 0,
					"patching_rect" : [ 1834.0, 735.0, 160.0, 20.0 ],
					"presentation" : 1,
					"presentation_rect" : [ 754.0, 428.500000089406967, 64.0, 20.0 ],
					"text" : "Presets"
				}

			}
, 			{
				"box" : 				{
					"id" : "obj-94",
					"maxclass" : "message",
					"numinlets" : 2,
					"numoutlets" : 1,
					"outlettype" : [ "" ],
					"patching_rect" : [ 1643.0, 31.0, 62.0, 22.0 ],
					"presentation" : 1,
					"presentation_rect" : [ 754.0, 261.666667699813843, 62.0, 22.0 ],
					"text" : "readagain"
				}

			}
, 			{
				"box" : 				{
					"id" : "obj-92",
					"maxclass" : "message",
					"numinlets" : 2,
					"numoutlets" : 1,
					"outlettype" : [ "" ],
					"patching_rect" : [ 1571.0, 31.0, 63.0, 22.0 ],
					"presentation" : 1,
					"presentation_rect" : [ 630.0, 261.666667699813843, 63.0, 22.0 ],
					"text" : "writeagain"
				}

			}
, 			{
				"box" : 				{
					"id" : "obj-90",
					"maxclass" : "message",
					"numinlets" : 2,
					"numoutlets" : 1,
					"outlettype" : [ "" ],
					"patching_rect" : [ 1414.0, 31.0, 33.0, 22.0 ],
					"presentation" : 1,
					"presentation_rect" : [ 719.0, 261.666667699813843, 33.0, 22.0 ],
					"text" : "read"
				}

			}
, 			{
				"box" : 				{
					"id" : "obj-88",
					"maxclass" : "newobj",
					"numinlets" : 1,
					"numoutlets" : 1,
					"outlettype" : [ "bang" ],
					"patching_rect" : [ 1367.0, 112.0, 58.0, 22.0 ],
					"text" : "loadbang"
				}

			}
, 			{
				"box" : 				{
					"fontname" : "Arial",
					"fontsize" : 13.0,
					"id" : "obj-82",
					"maxclass" : "message",
					"numinlets" : 2,
					"numoutlets" : 1,
					"outlettype" : [ "" ],
					"patching_rect" : [ 1367.0, 151.0, 180.0, 23.0 ],
					"text" : "pattrstorage gametrakPresets"
				}

			}
, 			{
				"box" : 				{
					"bubblesize" : 12,
					"id" : "obj-85",
					"maxclass" : "preset",
					"numinlets" : 1,
					"numoutlets" : 4,
					"outlettype" : [ "preset", "int", "preset", "int" ],
					"patching_rect" : [ 1367.0, 201.0, 47.0, 51.0 ],
					"pattrstorage" : "gametrakPresets",
					"presentation" : 1,
					"presentation_rect" : [ 586.0, 2.5, 230.0, 212.0 ]
				}

			}
, 			{
				"box" : 				{
					"id" : "obj-76",
					"maxclass" : "message",
					"numinlets" : 2,
					"numoutlets" : 1,
					"outlettype" : [ "" ],
					"patching_rect" : [ 1459.0, 31.0, 95.0, 22.0 ],
					"presentation" : 1,
					"presentation_rect" : [ 725.0, 219.0, 91.0, 22.0 ],
					"style" : "default",
					"text" : "storagewindow"
				}

			}
, 			{
				"box" : 				{
					"fontname" : "Arial",
					"fontsize" : 13.0,
					"id" : "obj-77",
					"maxclass" : "message",
					"numinlets" : 2,
					"numoutlets" : 1,
					"outlettype" : [ "" ],
					"patching_rect" : [ 1367.0, 31.0, 39.0, 23.0 ],
					"presentation" : 1,
					"presentation_rect" : [ 586.0, 261.666667699813843, 39.0, 23.0 ],
					"text" : "write"
				}

			}
, 			{
				"box" : 				{
					"autorestore" : "gametrakPresets.json",
					"fontname" : "Arial",
					"fontsize" : 13.0,
					"id" : "obj-80",
					"maxclass" : "newobj",
					"numinlets" : 1,
					"numoutlets" : 1,
					"outlettype" : [ "" ],
					"patching_rect" : [ 1367.0, 61.0, 267.0, 23.0 ],
					"saved_object_attributes" : 					{
						"client_rect" : [ 4, 79, 358, 207 ],
						"parameter_enable" : 0,
						"parameter_mappable" : 0,
						"storage_rect" : [ 583, 79, 1034, 207 ]
					}
,
					"text" : "pattrstorage gametrakPresets @savemode 0",
					"varname" : "gametrakPresets"
				}

			}
, 			{
				"box" : 				{
					"fontface" : 1,
					"fontname" : "Arial",
					"fontsize" : 12.0,
					"id" : "obj-69",
					"maxclass" : "comment",
					"numinlets" : 1,
					"numoutlets" : 0,
					"patching_rect" : [ 1081.642857142856883, 277.0, 75.0, 20.0 ],
					"presentation" : 1,
					"presentation_rect" : [ 506.0, 261.666667699813843, 75.0, 20.0 ],
					"text" : "Footswitch"
				}

			}
, 			{
				"box" : 				{
					"angle" : 0.0,
					"bgcolor" : [ 0.282352941176471, 0.388235294117647, 0.392156862745098, 1.0 ],
					"id" : "obj-49",
					"maxclass" : "panel",
					"mode" : 0,
					"numinlets" : 1,
					"numoutlets" : 0,
					"patching_rect" : [ 2045.0, 33.0, 312.0, 102.0 ],
					"presentation" : 1,
					"presentation_rect" : [ 506.200000894070058, 261.666667699813843, 67.666665703058129, 19.333332300186157 ],
					"proportion" : 0.5,
					"rounded" : 0
				}

			}
, 			{
				"box" : 				{
					"fontface" : 1,
					"fontname" : "Arial",
					"fontsize" : 12.0,
					"id" : "obj-67",
					"maxclass" : "comment",
					"numinlets" : 1,
					"numoutlets" : 0,
					"patching_rect" : [ 835.0, 337.0, 42.0, 20.0 ],
					"presentation" : 1,
					"presentation_rect" : [ 243.0, 261.0, 42.0, 20.0 ],
					"text" : "Right"
				}

			}
, 			{
				"box" : 				{
					"angle" : 0.0,
					"bgcolor" : [ 0.282352941176471, 0.388235294117647, 0.392156862745098, 1.0 ],
					"id" : "obj-47",
					"maxclass" : "panel",
					"mode" : 0,
					"numinlets" : 1,
					"numoutlets" : 0,
					"patching_rect" : [ 2038.0, 105.0, 312.0, 102.0 ],
					"presentation" : 1,
					"presentation_rect" : [ 243.0, 261.0, 63.200000000000102, 19.333332300186157 ],
					"proportion" : 0.5,
					"rounded" : 0
				}

			}
, 			{
				"box" : 				{
					"fontface" : 1,
					"fontname" : "Arial",
					"fontsize" : 12.0,
					"id" : "obj-66",
					"maxclass" : "comment",
					"numinlets" : 1,
					"numoutlets" : 0,
					"patching_rect" : [ 562.0, 337.0, 33.0, 20.0 ],
					"presentation" : 1,
					"presentation_rect" : [ 6.000000000000057, 261.0, 33.0, 20.0 ],
					"text" : "Left"
				}

			}
, 			{
				"box" : 				{
					"angle" : 0.0,
					"bgcolor" : [ 0.282352941176471, 0.388235294117647, 0.392156862745098, 1.0 ],
					"id" : "obj-45",
					"maxclass" : "panel",
					"mode" : 0,
					"numinlets" : 1,
					"numoutlets" : 0,
					"patching_rect" : [ 2084.0, 147.0, 312.0, 102.0 ],
					"presentation" : 1,
					"presentation_rect" : [ -1.0, 261.0, 63.200000000000102, 19.333332300186157 ],
					"proportion" : 0.5,
					"rounded" : 0
				}

			}
, 			{
				"box" : 				{
					"id" : "obj-10",
					"maxclass" : "panel",
					"numinlets" : 1,
					"numoutlets" : 0,
					"patching_rect" : [ 2023.0, 572.0, 128.0, 128.0 ],
					"presentation" : 1,
					"presentation_rect" : [ -1.0, 246.5, 582.0, 4.0 ]
				}

			}
, 			{
				"box" : 				{
					"id" : "obj-230",
					"maxclass" : "gswitch2",
					"numinlets" : 2,
					"numoutlets" : 2,
					"outlettype" : [ "", "" ],
					"parameter_enable" : 0,
					"patching_rect" : [ 1151.0, 520.0, 49.0, 22.0 ]
				}

			}
, 			{
				"box" : 				{
					"id" : "obj-231",
					"maxclass" : "newobj",
					"numinlets" : 1,
					"numoutlets" : 0,
					"patching_rect" : [ 1181.0, 556.0, 48.0, 22.0 ],
					"text" : "s mfCC"
				}

			}
, 			{
				"box" : 				{
					"id" : "obj-232",
					"maxclass" : "newobj",
					"numinlets" : 0,
					"numoutlets" : 1,
					"outlettype" : [ "" ],
					"patching_rect" : [ 1181.0, 450.0, 40.0, 22.0 ],
					"text" : "r FSw"
				}

			}
, 			{
				"box" : 				{
					"id" : "obj-227",
					"maxclass" : "newobj",
					"numinlets" : 2,
					"numoutlets" : 1,
					"outlettype" : [ "" ],
					"patcher" : 					{
						"fileversion" : 1,
						"appversion" : 						{
							"major" : 8,
							"minor" : 1,
							"revision" : 2,
							"architecture" : "x64",
							"modernui" : 1
						}
,
						"classnamespace" : "box",
						"rect" : [ 59.0, 104.0, 640.0, 480.0 ],
						"bglocked" : 0,
						"openinpresentation" : 0,
						"default_fontsize" : 12.0,
						"default_fontface" : 0,
						"default_fontname" : "Arial",
						"gridonopen" : 1,
						"gridsize" : [ 15.0, 15.0 ],
						"gridsnaponopen" : 1,
						"objectsnaponopen" : 1,
						"statusbarvisible" : 2,
						"toolbarvisible" : 1,
						"lefttoolbarpinned" : 0,
						"toptoolbarpinned" : 0,
						"righttoolbarpinned" : 0,
						"bottomtoolbarpinned" : 0,
						"toolbars_unpinned_last_save" : 0,
						"tallnewobj" : 0,
						"boxanimatetime" : 200,
						"enablehscroll" : 1,
						"enablevscroll" : 1,
						"devicewidth" : 0.0,
						"description" : "",
						"digest" : "",
						"tags" : "",
						"style" : "",
						"subpatcher_template" : "",
						"boxes" : [ 							{
								"box" : 								{
									"comment" : "",
									"id" : "obj-3",
									"index" : 1,
									"maxclass" : "outlet",
									"numinlets" : 1,
									"numoutlets" : 0,
									"patching_rect" : [ 67.0, 176.0, 30.0, 30.0 ]
								}

							}
, 							{
								"box" : 								{
									"comment" : "",
									"id" : "obj-2",
									"index" : 2,
									"maxclass" : "inlet",
									"numinlets" : 0,
									"numoutlets" : 1,
									"outlettype" : [ "" ],
									"patching_rect" : [ 97.0, 45.0, 30.0, 30.0 ]
								}

							}
, 							{
								"box" : 								{
									"comment" : "",
									"id" : "obj-1",
									"index" : 1,
									"maxclass" : "inlet",
									"numinlets" : 0,
									"numoutlets" : 1,
									"outlettype" : [ "" ],
									"patching_rect" : [ 53.0, 45.0, 30.0, 30.0 ]
								}

							}
, 							{
								"box" : 								{
									"id" : "obj-17",
									"maxclass" : "newobj",
									"numinlets" : 2,
									"numoutlets" : 2,
									"outlettype" : [ "", "" ],
									"patching_rect" : [ 67.0, 130.0, 37.0, 22.0 ],
									"text" : "zl.rev"
								}

							}
, 							{
								"box" : 								{
									"id" : "obj-15",
									"maxclass" : "newobj",
									"numinlets" : 2,
									"numoutlets" : 1,
									"outlettype" : [ "" ],
									"patching_rect" : [ 67.0, 89.0, 34.0, 22.0 ],
									"text" : "pack"
								}

							}
 ],
						"lines" : [ 							{
								"patchline" : 								{
									"destination" : [ "obj-15", 0 ],
									"source" : [ "obj-1", 0 ]
								}

							}
, 							{
								"patchline" : 								{
									"destination" : [ "obj-17", 0 ],
									"source" : [ "obj-15", 0 ]
								}

							}
, 							{
								"patchline" : 								{
									"destination" : [ "obj-3", 0 ],
									"source" : [ "obj-17", 0 ]
								}

							}
, 							{
								"patchline" : 								{
									"destination" : [ "obj-15", 1 ],
									"source" : [ "obj-2", 0 ]
								}

							}
 ]
					}
,
					"patching_rect" : [ 1181.0, 489.0, 143.0, 22.0 ],
					"saved_object_attributes" : 					{
						"description" : "",
						"digest" : "",
						"globalpatchername" : "",
						"tags" : ""
					}
,
					"text" : "p footswitch-midi-mapper"
				}

			}
, 			{
				"box" : 				{
					"fontface" : 1,
					"id" : "obj-225",
					"maxclass" : "comment",
					"numinlets" : 1,
					"numoutlets" : 0,
					"patching_rect" : [ 1834.0, 780.0, 151.0, 20.0 ],
					"presentation" : 1,
					"presentation_rect" : [ -1.0, 60.0, 83.0, 20.0 ],
					"text" : "HID In"
				}

			}
, 			{
				"box" : 				{
					"fontface" : 1,
					"id" : "obj-224",
					"maxclass" : "comment",
					"numinlets" : 1,
					"numoutlets" : 0,
					"patching_rect" : [ 1834.0, 758.0, 153.0, 20.0 ],
					"presentation" : 1,
					"presentation_rect" : [ 335.0, 60.0, 153.0, 20.0 ],
					"text" : "MIDI Out"
				}

			}
, 			{
				"box" : 				{
					"id" : "obj-202",
					"maxclass" : "newobj",
					"numinlets" : 0,
					"numoutlets" : 1,
					"outlettype" : [ "" ],
					"patching_rect" : [ 1036.0, 450.0, 32.0, 22.0 ],
					"text" : "r RZ"
				}

			}
, 			{
				"box" : 				{
					"id" : "obj-209",
					"maxclass" : "newobj",
					"numinlets" : 0,
					"numoutlets" : 1,
					"outlettype" : [ "" ],
					"patching_rect" : [ 930.0, 450.0, 32.0, 22.0 ],
					"text" : "r RY"
				}

			}
, 			{
				"box" : 				{
					"id" : "obj-216",
					"maxclass" : "newobj",
					"numinlets" : 0,
					"numoutlets" : 1,
					"outlettype" : [ "" ],
					"patching_rect" : [ 824.0, 450.0, 32.0, 22.0 ],
					"text" : "r RX"
				}

			}
, 			{
				"box" : 				{
					"id" : "obj-193",
					"maxclass" : "newobj",
					"numinlets" : 0,
					"numoutlets" : 1,
					"outlettype" : [ "" ],
					"patching_rect" : [ 720.0, 450.0, 30.0, 22.0 ],
					"text" : "r LZ"
				}

			}
, 			{
				"box" : 				{
					"id" : "obj-186",
					"maxclass" : "newobj",
					"numinlets" : 0,
					"numoutlets" : 1,
					"outlettype" : [ "" ],
					"patching_rect" : [ 616.0, 450.0, 30.0, 22.0 ],
					"text" : "r LY"
				}

			}
, 			{
				"box" : 				{
					"id" : "obj-87",
					"maxclass" : "newobj",
					"numinlets" : 0,
					"numoutlets" : 1,
					"outlettype" : [ "" ],
					"patching_rect" : [ 252.0, 433.0, 46.0, 22.0 ],
					"text" : "r mfCC"
				}

			}
, 			{
				"box" : 				{
					"id" : "obj-72",
					"maxclass" : "newobj",
					"numinlets" : 0,
					"numoutlets" : 1,
					"outlettype" : [ "" ],
					"patching_rect" : [ 511.0, 450.0, 31.0, 22.0 ],
					"text" : "r LX"
				}

			}
, 			{
				"box" : 				{
					"id" : "obj-14",
					"maxclass" : "newobj",
					"numinlets" : 7,
					"numoutlets" : 2,
					"outlettype" : [ "int", "" ],
					"patching_rect" : [ 231.0, 466.0, 82.0, 22.0 ],
					"text" : "midiformat"
				}

			}
, 			{
				"box" : 				{
					"fontname" : "Arial",
					"fontsize" : 13.0,
					"id" : "obj-1",
					"maxclass" : "message",
					"numinlets" : 2,
					"numoutlets" : 1,
					"outlettype" : [ "" ],
					"patching_rect" : [ 113.0, 395.0, 20.0, 23.0 ],
					"text" : "1"
				}

			}
, 			{
				"box" : 				{
					"fontface" : 0,
					"fontname" : "Arial",
					"fontsize" : 13.0,
					"id" : "obj-12",
					"items" : [ "AU DLS Synth 1", ",", "Network tw laptop", ",", "IAC Driver Bus 1", ",", "IAC Driver IAC Bus 2", ",", "VMidi 1", ",", "VMidi 2", ",", "VMidi 3", ",", "VMidi 4", ",", "from Max 1", ",", "from Max 2", ",", "Shuttle Control v3" ],
					"labelclick" : 1,
					"maxclass" : "umenu",
					"numinlets" : 1,
					"numoutlets" : 3,
					"outlettype" : [ "int", "", "" ],
					"parameter_enable" : 0,
					"patching_rect" : [ 113.0, 466.0, 100.0, 23.0 ],
					"presentation" : 1,
					"presentation_rect" : [ 342.0, 12.0, 233.0, 23.0 ]
				}

			}
, 			{
				"box" : 				{
					"fontname" : "Arial",
					"fontsize" : 13.0,
					"id" : "obj-13",
					"maxclass" : "newobj",
					"numinlets" : 2,
					"numoutlets" : 1,
					"outlettype" : [ "" ],
					"patching_rect" : [ 113.0, 425.5, 55.0, 23.0 ],
					"text" : "midiinfo"
				}

			}
, 			{
				"box" : 				{
					"id" : "obj-11",
					"maxclass" : "newobj",
					"numinlets" : 1,
					"numoutlets" : 0,
					"patching_rect" : [ 153.5, 506.0, 47.0, 22.0 ],
					"text" : "midiout"
				}

			}
, 			{
				"box" : 				{
					"fontname" : "Arial",
					"fontsize" : 12.0,
					"id" : "obj-6",
					"maxclass" : "comment",
					"numinlets" : 1,
					"numoutlets" : 0,
					"patching_rect" : [ 87.0, 38.0, 261.0, 20.0 ],
					"text" : "Plug the Gametrak in before opening this patch"
				}

			}
, 			{
				"box" : 				{
					"fontname" : "Arial",
					"fontsize" : 12.0,
					"id" : "obj-27",
					"maxclass" : "newobj",
					"numinlets" : 1,
					"numoutlets" : 1,
					"outlettype" : [ "" ],
					"patching_rect" : [ 132.0, 245.0, 95.0, 22.0 ],
					"text" : "loadmess menu"
				}

			}
, 			{
				"box" : 				{
					"fontname" : "Arial",
					"fontsize" : 12.0,
					"id" : "obj-24",
					"maxclass" : "newobj",
					"numinlets" : 1,
					"numoutlets" : 1,
					"outlettype" : [ "" ],
					"patching_rect" : [ 113.0, 141.0, 72.0, 22.0 ],
					"text" : "loadmess 5"
				}

			}
, 			{
				"box" : 				{
					"fontname" : "Arial",
					"fontsize" : 12.0,
					"id" : "obj-20",
					"maxclass" : "number",
					"maximum" : 1000,
					"minimum" : 0,
					"numinlets" : 1,
					"numoutlets" : 2,
					"outlettype" : [ "", "bang" ],
					"parameter_enable" : 0,
					"patching_rect" : [ 113.0, 179.0, 50.0, 22.0 ],
					"presentation" : 1,
					"presentation_rect" : [ 140.0, 40.0, 50.0, 22.0 ]
				}

			}
, 			{
				"box" : 				{
					"fontname" : "Arial",
					"fontsize" : 12.0,
					"id" : "obj-16",
					"maxclass" : "message",
					"numinlets" : 2,
					"numoutlets" : 1,
					"outlettype" : [ "" ],
					"patching_rect" : [ 113.0, 208.0, 46.0, 22.0 ],
					"text" : "poll $1"
				}

			}
, 			{
				"box" : 				{
					"fontname" : "Arial",
					"fontsize" : 12.0,
					"id" : "obj-23",
					"maxclass" : "newobj",
					"numinlets" : 0,
					"numoutlets" : 1,
					"outlettype" : [ "" ],
					"patching_rect" : [ 516.0, 38.0, 77.0, 22.0 ],
					"text" : "r toGTRoute"
				}

			}
, 			{
				"box" : 				{
					"fontname" : "Arial",
					"fontsize" : 12.0,
					"id" : "obj-22",
					"maxclass" : "newobj",
					"numinlets" : 1,
					"numoutlets" : 0,
					"patching_rect" : [ 1069.0, 92.0, 64.0, 22.0 ],
					"text" : "send FSw"
				}

			}
, 			{
				"box" : 				{
					"fontname" : "Arial",
					"fontsize" : 12.0,
					"id" : "obj-4",
					"maxclass" : "newobj",
					"numinlets" : 1,
					"numoutlets" : 0,
					"patching_rect" : [ 981.0, 92.0, 56.0, 22.0 ],
					"text" : "send RZ"
				}

			}
, 			{
				"box" : 				{
					"fontname" : "Arial",
					"fontsize" : 12.0,
					"id" : "obj-5",
					"maxclass" : "newobj",
					"numinlets" : 1,
					"numoutlets" : 0,
					"patching_rect" : [ 890.0, 92.0, 56.0, 22.0 ],
					"text" : "send RY"
				}

			}
, 			{
				"box" : 				{
					"fontname" : "Arial",
					"fontsize" : 12.0,
					"id" : "obj-8",
					"maxclass" : "newobj",
					"numinlets" : 1,
					"numoutlets" : 0,
					"patching_rect" : [ 798.0, 92.0, 57.0, 22.0 ],
					"text" : "send RX"
				}

			}
, 			{
				"box" : 				{
					"fontname" : "Arial",
					"fontsize" : 12.0,
					"id" : "obj-3",
					"maxclass" : "newobj",
					"numinlets" : 1,
					"numoutlets" : 0,
					"patching_rect" : [ 113.0, 308.0, 79.0, 22.0 ],
					"text" : "s toGTRoute"
				}

			}
, 			{
				"box" : 				{
					"fontname" : "Arial",
					"fontsize" : 12.0,
					"id" : "obj-84",
					"maxclass" : "newobj",
					"numinlets" : 1,
					"numoutlets" : 0,
					"patching_rect" : [ 710.0, 92.0, 54.0, 22.0 ],
					"text" : "send LZ"
				}

			}
, 			{
				"box" : 				{
					"fontname" : "Arial",
					"fontsize" : 12.0,
					"id" : "obj-83",
					"maxclass" : "newobj",
					"numinlets" : 1,
					"numoutlets" : 0,
					"patching_rect" : [ 620.0, 92.0, 54.0, 22.0 ],
					"text" : "send LY"
				}

			}
, 			{
				"box" : 				{
					"fontname" : "Arial",
					"fontsize" : 12.0,
					"id" : "obj-81",
					"maxclass" : "newobj",
					"numinlets" : 1,
					"numoutlets" : 0,
					"patching_rect" : [ 530.0, 92.0, 55.0, 22.0 ],
					"text" : "send LX"
				}

			}
, 			{
				"box" : 				{
					"fontface" : 1,
					"fontname" : "Arial",
					"fontsize" : 12.0,
					"id" : "obj-68",
					"maxclass" : "comment",
					"numinlets" : 1,
					"numoutlets" : 0,
					"patching_rect" : [ 931.0, 306.0, 20.0, 20.0 ],
					"presentation" : 1,
					"presentation_rect" : [ 380.899999999999977, 219.0, 19.0, 20.0 ],
					"text" : "z"
				}

			}
, 			{
				"box" : 				{
					"fontface" : 1,
					"fontname" : "Arial",
					"fontsize" : 12.0,
					"id" : "obj-78",
					"maxclass" : "comment",
					"numinlets" : 1,
					"numoutlets" : 0,
					"patching_rect" : [ 771.0, 238.0, 20.0, 20.0 ],
					"presentation" : 1,
					"presentation_rect" : [ 220.399999999999977, 145.0, 18.0, 20.0 ],
					"text" : "y"
				}

			}
, 			{
				"box" : 				{
					"fontface" : 1,
					"fontname" : "Arial",
					"fontsize" : 12.0,
					"id" : "obj-79",
					"maxclass" : "comment",
					"numinlets" : 1,
					"numoutlets" : 0,
					"patching_rect" : [ 841.0, 306.0, 20.0, 20.0 ],
					"presentation" : 1,
					"presentation_rect" : [ 290.899999999999977, 219.0, 19.0, 20.0 ],
					"text" : "x"
				}

			}
, 			{
				"box" : 				{
					"fontface" : 1,
					"fontname" : "Arial",
					"fontsize" : 12.0,
					"id" : "obj-65",
					"maxclass" : "comment",
					"numinlets" : 1,
					"numoutlets" : 0,
					"patching_rect" : [ 668.0, 306.0, 20.0, 20.0 ],
					"presentation" : 1,
					"presentation_rect" : [ 166.5, 219.0, 19.0, 20.0 ],
					"text" : "z"
				}

			}
, 			{
				"box" : 				{
					"fontface" : 1,
					"fontname" : "Arial",
					"fontsize" : 12.0,
					"id" : "obj-63",
					"maxclass" : "comment",
					"numinlets" : 1,
					"numoutlets" : 0,
					"patching_rect" : [ 495.0, 236.0, 20.0, 20.0 ],
					"presentation" : 1,
					"presentation_rect" : [ 6.0, 145.0, 18.0, 20.0 ],
					"text" : "y"
				}

			}
, 			{
				"box" : 				{
					"fontface" : 1,
					"fontname" : "Arial",
					"fontsize" : 12.0,
					"id" : "obj-51",
					"maxclass" : "comment",
					"numinlets" : 1,
					"numoutlets" : 0,
					"patching_rect" : [ 568.0, 306.0, 20.0, 20.0 ],
					"presentation" : 1,
					"presentation_rect" : [ 76.5, 219.0, 19.0, 20.0 ],
					"text" : "x"
				}

			}
, 			{
				"box" : 				{
					"bgcolor" : [ 0.2, 0.2, 0.2, 0.36 ],
					"id" : "obj-64",
					"maxclass" : "toggle",
					"numinlets" : 1,
					"numoutlets" : 1,
					"outlettype" : [ "int" ],
					"parameter_enable" : 0,
					"patching_rect" : [ 1055.14285714285711, 135.0, 128.0, 128.0 ],
					"presentation" : 1,
					"presentation_rect" : [ 438.5, 99.0, 128.0, 128.0 ]
				}

			}
, 			{
				"box" : 				{
					"fontname" : "Arial",
					"fontsize" : 12.0,
					"id" : "obj-60",
					"maxclass" : "newobj",
					"numinlets" : 2,
					"numoutlets" : 1,
					"outlettype" : [ "int" ],
					"patching_rect" : [ 923.0, 135.0, 48.0, 22.0 ],
					"text" : "!- 4095"
				}

			}
, 			{
				"box" : 				{
					"bgcolor" : [ 0.2, 0.2, 0.2, 0.36 ],
					"elementcolor" : [ 0.349019607843137, 0.349019607843137, 0.349019607843137, 0.35 ],
					"id" : "obj-61",
					"maxclass" : "slider",
					"numinlets" : 1,
					"numoutlets" : 1,
					"outlettype" : [ "" ],
					"parameter_enable" : 0,
					"patching_rect" : [ 923.0, 174.0, 36.0, 128.0 ],
					"presentation" : 1,
					"presentation_rect" : [ 372.399999999999977, 91.0, 36.0, 128.0 ],
					"size" : 4096.0
				}

			}
, 			{
				"box" : 				{
					"fontname" : "Arial",
					"fontsize" : 12.0,
					"id" : "obj-59",
					"maxclass" : "newobj",
					"numinlets" : 2,
					"numoutlets" : 1,
					"outlettype" : [ "int" ],
					"patching_rect" : [ 660.0, 133.0, 48.0, 22.0 ],
					"text" : "!- 4095"
				}

			}
, 			{
				"box" : 				{
					"bgcolor" : [ 0.2, 0.2, 0.2, 0.35 ],
					"elementcolor" : [ 0.349019607843137, 0.349019607843137, 0.349019607843137, 0.36 ],
					"id" : "obj-58",
					"maxclass" : "slider",
					"numinlets" : 1,
					"numoutlets" : 1,
					"outlettype" : [ "" ],
					"parameter_enable" : 0,
					"patching_rect" : [ 660.0, 174.0, 36.0, 128.0 ],
					"presentation" : 1,
					"presentation_rect" : [ 158.0, 91.0, 36.0, 128.0 ],
					"size" : 4096.0
				}

			}
, 			{
				"box" : 				{
					"bgcolor" : [ 0.2, 0.2, 0.2, 0.36 ],
					"color" : [ 0.807843137254902, 0.898039215686275, 0.909803921568627, 1.0 ],
					"id" : "obj-57",
					"maxclass" : "pictslider",
					"numinlets" : 2,
					"numoutlets" : 2,
					"outlettype" : [ "int", "int" ],
					"parameter_enable" : 0,
					"patching_rect" : [ 787.0, 174.0, 128.0, 128.0 ],
					"presentation" : 1,
					"presentation_rect" : [ 236.399999999999977, 91.0, 128.0, 128.0 ],
					"rightvalue" : 4095,
					"topvalue" : 4095
				}

			}
, 			{
				"box" : 				{
					"bgcolor" : [ 0.2, 0.2, 0.2, 0.36 ],
					"color" : [ 0.807843137254902, 0.898039215686275, 0.909803921568627, 1.0 ],
					"id" : "obj-56",
					"maxclass" : "pictslider",
					"numinlets" : 2,
					"numoutlets" : 2,
					"outlettype" : [ "int", "int" ],
					"parameter_enable" : 0,
					"patching_rect" : [ 516.0, 174.0, 128.0, 128.0 ],
					"presentation" : 1,
					"presentation_rect" : [ 22.0, 91.0, 128.0, 128.0 ],
					"rightvalue" : 4095,
					"topvalue" : 4095
				}

			}
, 			{
				"box" : 				{
					"fontname" : "Arial",
					"fontsize" : 12.0,
					"id" : "obj-46",
					"maxclass" : "number",
					"numinlets" : 1,
					"numoutlets" : 2,
					"outlettype" : [ "", "bang" ],
					"parameter_enable" : 0,
					"patching_rect" : [ 869.0, 310.0, 50.0, 22.0 ]
				}

			}
, 			{
				"box" : 				{
					"fontname" : "Arial",
					"fontsize" : 12.0,
					"id" : "obj-44",
					"maxclass" : "number",
					"numinlets" : 1,
					"numoutlets" : 2,
					"outlettype" : [ "", "bang" ],
					"parameter_enable" : 0,
					"patching_rect" : [ 787.0, 310.0, 50.0, 22.0 ]
				}

			}
, 			{
				"box" : 				{
					"fontname" : "Arial",
					"fontsize" : 12.0,
					"id" : "obj-42",
					"maxclass" : "number",
					"numinlets" : 1,
					"numoutlets" : 2,
					"outlettype" : [ "", "bang" ],
					"parameter_enable" : 0,
					"patching_rect" : [ 923.0, 335.0, 50.0, 22.0 ]
				}

			}
, 			{
				"box" : 				{
					"fontname" : "Arial",
					"fontsize" : 12.0,
					"id" : "obj-40",
					"maxclass" : "number",
					"numinlets" : 1,
					"numoutlets" : 2,
					"outlettype" : [ "", "bang" ],
					"parameter_enable" : 0,
					"patching_rect" : [ 660.0, 335.0, 50.0, 22.0 ]
				}

			}
, 			{
				"box" : 				{
					"fontname" : "Arial",
					"fontsize" : 12.0,
					"id" : "obj-38",
					"maxclass" : "number",
					"numinlets" : 1,
					"numoutlets" : 2,
					"outlettype" : [ "", "bang" ],
					"parameter_enable" : 0,
					"patching_rect" : [ 596.0, 310.0, 50.0, 22.0 ]
				}

			}
, 			{
				"box" : 				{
					"fontname" : "Arial",
					"fontsize" : 12.0,
					"id" : "obj-36",
					"maxclass" : "number",
					"numinlets" : 1,
					"numoutlets" : 2,
					"outlettype" : [ "", "bang" ],
					"parameter_enable" : 0,
					"patching_rect" : [ 516.0, 310.0, 50.0, 22.0 ]
				}

			}
, 			{
				"box" : 				{
					"fontname" : "Arial",
					"fontsize" : 12.0,
					"id" : "obj-2",
					"maxclass" : "newobj",
					"numinlets" : 8,
					"numoutlets" : 8,
					"outlettype" : [ "", "", "", "", "", "", "", "" ],
					"patching_rect" : [ 516.0, 61.0, 648.0, 22.0 ],
					"text" : "route 17 18 19 20 21 22 3"
				}

			}
, 			{
				"box" : 				{
					"fontname" : "Arial",
					"fontsize" : 11.595186999999999,
					"id" : "obj-7",
					"maxclass" : "message",
					"numinlets" : 2,
					"numoutlets" : 1,
					"outlettype" : [ "" ],
					"patching_rect" : [ 244.0, 209.0, 104.0, 21.0 ],
					"text" : "\"Game-Trak V1.3\""
				}

			}
, 			{
				"box" : 				{
					"fontname" : "Arial",
					"fontsize" : 11.595186999999999,
					"id" : "obj-18",
					"maxclass" : "comment",
					"numinlets" : 1,
					"numoutlets" : 0,
					"patching_rect" : [ 297.0, 161.0, 125.0, 19.0 ],
					"presentation" : 1,
					"presentation_rect" : [ 249.199999999999989, 43.0, 81.799999999999955, 19.0 ],
					"text" : "Output queue"
				}

			}
, 			{
				"box" : 				{
					"id" : "obj-21",
					"maxclass" : "button",
					"numinlets" : 1,
					"numoutlets" : 1,
					"outlettype" : [ "bang" ],
					"parameter_enable" : 0,
					"patching_rect" : [ 227.0, 135.0, 66.0, 66.0 ],
					"presentation" : 1,
					"presentation_rect" : [ 272.124999999999886, 5.5, 35.950000000000045, 35.950000000000045 ]
				}

			}
, 			{
				"box" : 				{
					"allowdrag" : 0,
					"fontname" : "Arial",
					"fontsize" : 11.595186999999999,
					"id" : "obj-28",
					"items" : [ "Karabiner VirtualHIDKeyboard", ",", "Keyboard Backlight", ",", "Apple Internal Keyboard / Trackpad", ",", "Apple Internal Keyboard / Trackpad 2", ",", "Apple Internal Keyboard / Trackpad 3", ",", "Apple Internal Keyboard / Trackpad 4", ",", "Apple Internal Keyboard / Trackpad 5" ],
					"labelclick" : 1,
					"maxclass" : "umenu",
					"numinlets" : 1,
					"numoutlets" : 3,
					"outlettype" : [ "int", "", "" ],
					"parameter_enable" : 0,
					"patching_rect" : [ 237.0, 281.0, 173.0, 21.0 ],
					"presentation" : 1,
					"presentation_rect" : [ 33.200000000000003, 12.0, 219.0, 21.0 ]
				}

			}
, 			{
				"box" : 				{
					"fontname" : "Arial",
					"fontsize" : 11.595186999999999,
					"id" : "obj-30",
					"maxclass" : "newobj",
					"numinlets" : 1,
					"numoutlets" : 2,
					"outlettype" : [ "list", "" ],
					"patching_rect" : [ 113.0, 281.0, 116.0, 21.0 ],
					"text" : "hi \"Game-Trak V1.3\""
				}

			}
, 			{
				"box" : 				{
					"angle" : 0.0,
					"bgcolor" : [ 0.996078431372549, 0.392156862745098, 0.0, 1.0 ],
					"id" : "obj-222",
					"maxclass" : "panel",
					"mode" : 0,
					"numinlets" : 1,
					"numoutlets" : 0,
					"patching_rect" : [ 1560.0, 445.0, 449.0, 238.0 ],
					"presentation" : 1,
					"presentation_rect" : [ 335.0, 0.0, 246.0, 80.0 ],
					"proportion" : 0.5,
					"rounded" : 0
				}

			}
, 			{
				"box" : 				{
					"fontname" : "Arial",
					"fontsize" : 11.595186999999999,
					"id" : "obj-25",
					"maxclass" : "comment",
					"numinlets" : 1,
					"numoutlets" : 0,
					"patching_rect" : [ 7.0, 180.0, 219.0, 19.0 ],
					"presentation" : 1,
					"presentation_rect" : [ 33.200000000000003, 43.0, 219.0, 19.0 ],
					"text" : "output queue every                 ms. 0 = off"
				}

			}
, 			{
				"box" : 				{
					"angle" : 0.0,
					"bgcolor" : [ 1.0, 0.701961, 0.0, 1.0 ],
					"id" : "obj-31",
					"maxclass" : "panel",
					"mode" : 0,
					"numinlets" : 1,
					"numoutlets" : 0,
					"patching_rect" : [ 1545.0, 430.0, 449.0, 238.0 ],
					"presentation" : 1,
					"presentation_rect" : [ -1.0, 0.0, 341.0, 80.0 ],
					"rounded" : 0
				}

			}
, 			{
				"box" : 				{
					"angle" : 0.0,
					"bgcolor" : [ 0.337254901960784, 0.458823529411765, 0.466666666666667, 1.0 ],
					"id" : "obj-43",
					"maxclass" : "panel",
					"mode" : 0,
					"numinlets" : 1,
					"numoutlets" : 0,
					"patching_rect" : [ 2028.0, 183.0, 312.0, 102.0 ],
					"presentation" : 1,
					"presentation_rect" : [ 489.100000447034972, 261.666667699813843, 84.766666150093215, 82.333332300186157 ],
					"proportion" : 0.5,
					"rounded" : 0
				}

			}
, 			{
				"box" : 				{
					"angle" : 0.0,
					"bgcolor" : [ 0.4, 0.545098039215686, 0.552941176470588, 1.0 ],
					"id" : "obj-15",
					"maxclass" : "panel",
					"mode" : 0,
					"numinlets" : 1,
					"numoutlets" : 0,
					"patching_rect" : [ 2066.5, 361.0, 254.5, 128.0 ],
					"presentation" : 1,
					"presentation_rect" : [ -1.0, 257.0, 233.5, 162.0 ],
					"proportion" : 0.5,
					"rounded" : 0
				}

			}
, 			{
				"box" : 				{
					"angle" : 0.0,
					"bgcolor" : [ 0.4, 0.545098039215686, 0.552941176470588, 1.0 ],
					"id" : "obj-17",
					"maxclass" : "panel",
					"mode" : 0,
					"numinlets" : 1,
					"numoutlets" : 0,
					"patching_rect" : [ 2081.5, 376.0, 254.5, 128.0 ],
					"presentation" : 1,
					"presentation_rect" : [ 243.0, 257.0, 235.0, 87.0 ],
					"proportion" : 0.5,
					"rounded" : 0
				}

			}
, 			{
				"box" : 				{
					"angle" : 0.0,
					"bgcolor" : [ 0.4, 0.545098039215686, 0.552941176470588, 1.0 ],
					"id" : "obj-19",
					"maxclass" : "panel",
					"mode" : 0,
					"numinlets" : 1,
					"numoutlets" : 0,
					"patching_rect" : [ 2096.5, 391.0, 254.5, 128.0 ],
					"presentation" : 1,
					"presentation_rect" : [ 485.333334296941757, 257.0, 88.53333230018643, 87.0 ],
					"proportion" : 0.5,
					"rounded" : 0
				}

			}
, 			{
				"box" : 				{
					"angle" : 0.0,
					"bgcolor" : [ 0.4, 0.545098039215686, 0.552941176470588, 1.0 ],
					"id" : "obj-71",
					"maxclass" : "panel",
					"mode" : 0,
					"numinlets" : 1,
					"numoutlets" : 0,
					"patching_rect" : [ 2126.0, 416.0, 294.0, 150.0 ],
					"presentation" : 1,
					"presentation_rect" : [ -1.0, 87.0, 209.0, 152.0 ],
					"proportion" : 0.5,
					"rounded" : 0
				}

			}
, 			{
				"box" : 				{
					"angle" : 0.0,
					"bgcolor" : [ 0.4, 0.545098039215686, 0.552941176470588, 1.0 ],
					"id" : "obj-70",
					"maxclass" : "panel",
					"mode" : 0,
					"numinlets" : 1,
					"numoutlets" : 0,
					"patching_rect" : [ 2111.0, 401.0, 294.0, 150.0 ],
					"presentation" : 1,
					"presentation_rect" : [ 215.0, 87.0, 209.000000000000057, 152.0 ],
					"proportion" : 0.5,
					"rounded" : 0
				}

			}
, 			{
				"box" : 				{
					"angle" : 0.0,
					"bgcolor" : [ 0.4, 0.545098039215686, 0.552941176470588, 1.0 ],
					"id" : "obj-73",
					"maxclass" : "panel",
					"mode" : 0,
					"numinlets" : 1,
					"numoutlets" : 0,
					"patching_rect" : [ 2084.0, 391.0, 294.0, 150.0 ],
					"presentation" : 1,
					"presentation_rect" : [ 430.0, 87.0, 145.0, 152.0 ],
					"proportion" : 0.5,
					"rounded" : 0
				}

			}
, 			{
				"box" : 				{
					"angle" : 0.0,
					"bgcolor" : [ 0.474509803921569, 0.643137254901961, 0.654901960784314, 1.0 ],
					"id" : "obj-29",
					"maxclass" : "panel",
					"mode" : 0,
					"numinlets" : 1,
					"numoutlets" : 0,
					"patching_rect" : [ 2051.5, 346.0, 254.5, 128.0 ],
					"presentation" : 1,
					"presentation_rect" : [ -1.0, 79.0, 582.0, 375.0 ],
					"proportion" : 0.5,
					"rounded" : 0
				}

			}
, 			{
				"box" : 				{
					"angle" : 0.0,
					"bgcolor" : [ 0.337254901960784, 0.345098039215686, 0.482352941176471, 1.0 ],
					"id" : "obj-35",
					"maxclass" : "panel",
					"mode" : 0,
					"numinlets" : 1,
					"numoutlets" : 0,
					"patching_rect" : [ 1590.0, 475.0, 449.0, 238.0 ],
					"presentation" : 1,
					"presentation_rect" : [ 606.0, 423.000000178813934, 214.0, 30.999999821186066 ],
					"proportion" : 0.5,
					"rounded" : 0
				}

			}
, 			{
				"box" : 				{
					"angle" : 0.0,
					"bgcolor" : [ 0.486274509803922, 0.498039215686275, 0.694117647058824, 1.0 ],
					"id" : "obj-95",
					"maxclass" : "panel",
					"mode" : 0,
					"numinlets" : 1,
					"numoutlets" : 0,
					"patching_rect" : [ 1575.0, 460.0, 449.0, 238.0 ],
					"presentation" : 1,
					"presentation_rect" : [ 575.0, 0.0, 245.0, 454.0 ],
					"proportion" : 0.5,
					"rounded" : 0
				}

			}
 ],
		"lines" : [ 			{
				"patchline" : 				{
					"destination" : [ "obj-13", 0 ],
					"source" : [ "obj-1", 0 ]
				}

			}
, 			{
				"patchline" : 				{
					"destination" : [ "obj-11", 0 ],
					"source" : [ "obj-12", 1 ]
				}

			}
, 			{
				"patchline" : 				{
					"destination" : [ "obj-12", 0 ],
					"source" : [ "obj-13", 0 ]
				}

			}
, 			{
				"patchline" : 				{
					"destination" : [ "obj-11", 0 ],
					"midpoints" : [ 240.5, 501.0, 163.0, 501.0 ],
					"source" : [ "obj-14", 0 ]
				}

			}
, 			{
				"patchline" : 				{
					"destination" : [ "obj-30", 0 ],
					"source" : [ "obj-16", 0 ]
				}

			}
, 			{
				"patchline" : 				{
					"destination" : [ "obj-75", 0 ],
					"source" : [ "obj-186", 0 ]
				}

			}
, 			{
				"patchline" : 				{
					"destination" : [ "obj-86", 0 ],
					"source" : [ "obj-193", 0 ]
				}

			}
, 			{
				"patchline" : 				{
					"destination" : [ "obj-22", 0 ],
					"midpoints" : [ 1064.64285714285711, 86.0, 1078.5, 86.0 ],
					"order" : 0,
					"source" : [ "obj-2", 6 ]
				}

			}
, 			{
				"patchline" : 				{
					"destination" : [ "obj-4", 0 ],
					"midpoints" : [ 974.785714285714221, 86.0, 990.5, 86.0 ],
					"order" : 0,
					"source" : [ "obj-2", 5 ]
				}

			}
, 			{
				"patchline" : 				{
					"destination" : [ "obj-5", 0 ],
					"midpoints" : [ 884.928571428571445, 86.0, 899.5, 86.0 ],
					"order" : 1,
					"source" : [ "obj-2", 4 ]
				}

			}
, 			{
				"patchline" : 				{
					"destination" : [ "obj-56", 1 ],
					"midpoints" : [ 615.35714285714289, 159.0, 634.5, 159.0 ],
					"order" : 0,
					"source" : [ "obj-2", 1 ]
				}

			}
, 			{
				"patchline" : 				{
					"destination" : [ "obj-56", 0 ],
					"midpoints" : [ 525.5, 158.0, 525.5, 158.0 ],
					"order" : 1,
					"source" : [ "obj-2", 0 ]
				}

			}
, 			{
				"patchline" : 				{
					"destination" : [ "obj-57", 1 ],
					"midpoints" : [ 884.928571428571445, 159.0, 905.5, 159.0 ],
					"order" : 0,
					"source" : [ "obj-2", 4 ]
				}

			}
, 			{
				"patchline" : 				{
					"destination" : [ "obj-57", 0 ],
					"midpoints" : [ 795.071428571428555, 158.0, 796.5, 158.0 ],
					"order" : 1,
					"source" : [ "obj-2", 3 ]
				}

			}
, 			{
				"patchline" : 				{
					"destination" : [ "obj-59", 0 ],
					"midpoints" : [ 705.214285714285779, 84.0, 696.0, 84.0, 696.0, 120.0, 669.5, 120.0 ],
					"order" : 1,
					"source" : [ "obj-2", 2 ]
				}

			}
, 			{
				"patchline" : 				{
					"destination" : [ "obj-60", 0 ],
					"midpoints" : [ 974.785714285714221, 84.0, 966.0, 84.0, 966.0, 120.0, 932.5, 120.0 ],
					"order" : 1,
					"source" : [ "obj-2", 5 ]
				}

			}
, 			{
				"patchline" : 				{
					"destination" : [ "obj-64", 0 ],
					"order" : 1,
					"source" : [ "obj-2", 6 ]
				}

			}
, 			{
				"patchline" : 				{
					"destination" : [ "obj-8", 0 ],
					"midpoints" : [ 795.071428571428555, 86.0, 807.5, 86.0 ],
					"order" : 0,
					"source" : [ "obj-2", 3 ]
				}

			}
, 			{
				"patchline" : 				{
					"destination" : [ "obj-81", 0 ],
					"midpoints" : [ 525.5, 86.0, 539.5, 86.0 ],
					"order" : 0,
					"source" : [ "obj-2", 0 ]
				}

			}
, 			{
				"patchline" : 				{
					"destination" : [ "obj-83", 0 ],
					"midpoints" : [ 615.35714285714289, 86.0, 629.5, 86.0 ],
					"order" : 1,
					"source" : [ "obj-2", 1 ]
				}

			}
, 			{
				"patchline" : 				{
					"destination" : [ "obj-84", 0 ],
					"midpoints" : [ 705.214285714285779, 86.0, 719.5, 86.0 ],
					"order" : 0,
					"source" : [ "obj-2", 2 ]
				}

			}
, 			{
				"patchline" : 				{
					"destination" : [ "obj-16", 0 ],
					"source" : [ "obj-20", 0 ]
				}

			}
, 			{
				"patchline" : 				{
					"destination" : [ "obj-93", 0 ],
					"source" : [ "obj-202", 0 ]
				}

			}
, 			{
				"patchline" : 				{
					"destination" : [ "obj-91", 0 ],
					"source" : [ "obj-209", 0 ]
				}

			}
, 			{
				"patchline" : 				{
					"destination" : [ "obj-30", 0 ],
					"midpoints" : [ 236.5, 231.0, 122.5, 231.0 ],
					"source" : [ "obj-21", 0 ]
				}

			}
, 			{
				"patchline" : 				{
					"destination" : [ "obj-89", 0 ],
					"source" : [ "obj-216", 0 ]
				}

			}
, 			{
				"patchline" : 				{
					"destination" : [ "obj-230", 1 ],
					"order" : 1,
					"source" : [ "obj-227", 0 ]
				}

			}
, 			{
				"patchline" : 				{
					"destination" : [ "obj-234", 1 ],
					"order" : 0,
					"source" : [ "obj-227", 0 ]
				}

			}
, 			{
				"patchline" : 				{
					"destination" : [ "obj-227", 1 ],
					"source" : [ "obj-228", 0 ]
				}

			}
, 			{
				"patchline" : 				{
					"destination" : [ "obj-230", 0 ],
					"source" : [ "obj-229", 0 ]
				}

			}
, 			{
				"patchline" : 				{
					"destination" : [ "obj-2", 0 ],
					"source" : [ "obj-23", 0 ]
				}

			}
, 			{
				"patchline" : 				{
					"destination" : [ "obj-231", 0 ],
					"source" : [ "obj-230", 1 ]
				}

			}
, 			{
				"patchline" : 				{
					"destination" : [ "obj-227", 0 ],
					"source" : [ "obj-232", 0 ]
				}

			}
, 			{
				"patchline" : 				{
					"destination" : [ "obj-20", 0 ],
					"source" : [ "obj-24", 0 ]
				}

			}
, 			{
				"patchline" : 				{
					"destination" : [ "obj-30", 0 ],
					"midpoints" : [ 141.5, 272.5, 122.5, 272.5 ],
					"source" : [ "obj-27", 0 ]
				}

			}
, 			{
				"patchline" : 				{
					"destination" : [ "obj-30", 0 ],
					"midpoints" : [ 323.5, 305.0, 416.0, 305.0, 416.0, 277.0, 122.5, 277.0 ],
					"source" : [ "obj-28", 1 ]
				}

			}
, 			{
				"patchline" : 				{
					"destination" : [ "obj-28", 0 ],
					"midpoints" : [ 219.5, 304.0, 232.0, 304.0, 232.0, 277.0, 246.5, 277.0 ],
					"source" : [ "obj-30", 1 ]
				}

			}
, 			{
				"patchline" : 				{
					"destination" : [ "obj-3", 0 ],
					"source" : [ "obj-30", 0 ]
				}

			}
, 			{
				"patchline" : 				{
					"destination" : [ "obj-1", 0 ],
					"source" : [ "obj-32", 0 ]
				}

			}
, 			{
				"patchline" : 				{
					"destination" : [ "obj-36", 0 ],
					"source" : [ "obj-56", 0 ]
				}

			}
, 			{
				"patchline" : 				{
					"destination" : [ "obj-38", 0 ],
					"midpoints" : [ 634.5, 305.5, 605.5, 305.5 ],
					"source" : [ "obj-56", 1 ]
				}

			}
, 			{
				"patchline" : 				{
					"destination" : [ "obj-44", 0 ],
					"source" : [ "obj-57", 0 ]
				}

			}
, 			{
				"patchline" : 				{
					"destination" : [ "obj-46", 0 ],
					"midpoints" : [ 905.5, 304.0, 878.5, 304.0 ],
					"source" : [ "obj-57", 1 ]
				}

			}
, 			{
				"patchline" : 				{
					"destination" : [ "obj-40", 0 ],
					"source" : [ "obj-58", 0 ]
				}

			}
, 			{
				"patchline" : 				{
					"destination" : [ "obj-58", 0 ],
					"source" : [ "obj-59", 0 ]
				}

			}
, 			{
				"patchline" : 				{
					"destination" : [ "obj-61", 0 ],
					"source" : [ "obj-60", 0 ]
				}

			}
, 			{
				"patchline" : 				{
					"destination" : [ "obj-42", 0 ],
					"source" : [ "obj-61", 0 ]
				}

			}
, 			{
				"patchline" : 				{
					"destination" : [ "obj-30", 0 ],
					"midpoints" : [ 253.5, 231.0, 122.5, 231.0 ],
					"source" : [ "obj-7", 0 ]
				}

			}
, 			{
				"patchline" : 				{
					"destination" : [ "obj-74", 0 ],
					"source" : [ "obj-72", 0 ]
				}

			}
, 			{
				"patchline" : 				{
					"destination" : [ "obj-80", 0 ],
					"source" : [ "obj-76", 0 ]
				}

			}
, 			{
				"patchline" : 				{
					"destination" : [ "obj-80", 0 ],
					"source" : [ "obj-77", 0 ]
				}

			}
, 			{
				"patchline" : 				{
					"destination" : [ "obj-85", 0 ],
					"source" : [ "obj-82", 0 ]
				}

			}
, 			{
				"patchline" : 				{
					"destination" : [ "obj-14", 2 ],
					"source" : [ "obj-87", 0 ]
				}

			}
, 			{
				"patchline" : 				{
					"destination" : [ "obj-82", 0 ],
					"source" : [ "obj-88", 0 ]
				}

			}
, 			{
				"patchline" : 				{
					"destination" : [ "obj-80", 0 ],
					"source" : [ "obj-90", 0 ]
				}

			}
, 			{
				"patchline" : 				{
					"destination" : [ "obj-80", 0 ],
					"source" : [ "obj-92", 0 ]
				}

			}
, 			{
				"patchline" : 				{
					"destination" : [ "obj-80", 0 ],
					"source" : [ "obj-94", 0 ]
				}

			}
 ],
		"dependency_cache" : [ 			{
				"name" : "gametrakPresets.json",
				"bootpath" : "~/Documents/Max 8/Library/twlib/gametrak-to-midi",
				"patcherrelativepath" : ".",
				"type" : "JSON",
				"implicit" : 1
			}
, 			{
				"name" : "mapping-midi.maxpat",
				"bootpath" : "~/Documents/Max 8/Library/twlib/gametrak-to-midi",
				"patcherrelativepath" : ".",
				"type" : "JSON",
				"implicit" : 1
			}
 ],
		"autosave" : 0
	}

}
